<?xml version="1.0" encoding="utf-8"?>
<!-- Generator: Adobe Illustrator 24.1.1, SVG Export Plug-In . SVG Version: 6.00 Build 0)  -->
<svg version="1.1" id="Layer_1" xmlns="http://www.w3.org/2000/svg" xmlns:xlink="http://www.w3.org/1999/xlink" x="0px" y="0px"
	 viewBox="0 0 512 512" style="enable-background:new 0 0 512 512;" xml:space="preserve">
<g>
	<path d="M512,59.53v392.93c0,13.1-10.72,23.81-23.81,23.81H178.01c-13.09,0-23.22-10.72-23.22-23.81V343.52
		c0-13.1,10.72-23.81,23.81-23.81c13.1,0,23.81,10.72,23.81,23.81v85.13h261.95V83.35H202.42v85.13c0,13.1-10.72,23.81-23.81,23.81
		c-13.1,0-23.81-10.72-23.81-23.81V59.53c0-13.1,10.12-23.81,23.22-23.81h310.18C501.28,35.72,512,46.44,512,59.53z M258.98,332.8
		c-9.53,9.52-8.93,24.41,0,33.93c4.76,4.77,10.72,7.15,16.67,7.15s12.5-2.38,16.67-7.15l93.47-94.06c8.93-9.52,8.93-24.41,0-33.34
		l-92.87-95.26c-9.53-9.52-24.41-9.52-33.94,0c-9.53,9.53-9.53,24.41,0,33.94l52.98,53.58l-288.15,0.59C10.72,232.19,0,242.9,0,256
		c0,13.1,10.72,23.81,23.81,23.81l288.15-0.59L258.98,332.8z"/>
</g>
</svg>
